<svg xmlns="http://www.w3.org/2000/svg" viewBox="0 0 47.64 57.63"><defs><style>.cls-1{fill:#454545;}</style></defs><title>아이디</title><g id="레이어_2" data-name="레이어 2"><g id="icons"><path class="cls-1" d="M34.25,22.91a13.85,13.85,0,1,0-20.87,0A16.41,16.41,0,0,0,0,39V55.09a2.53,2.53,0,1,0,5.06,0V39A11.34,11.34,0,0,1,16.39,27.69H31.25A11.34,11.34,0,0,1,42.57,39V55.09a2.54,2.54,0,1,0,5.07,0V39A16.41,16.41,0,0,0,34.25,22.91ZM23.82,5.06A8.79,8.79,0,1,1,15,13.84,8.79,8.79,0,0,1,23.82,5.06Z"/><path class="cls-1" d="M12,38.42A2.53,2.53,0,0,0,9.42,41V55.09a2.53,2.53,0,1,0,5.06,0V41A2.53,2.53,0,0,0,12,38.42Z"/><path class="cls-1" d="M35.69,38.42A2.53,2.53,0,0,0,33.16,41V55.09a2.53,2.53,0,1,0,5.06,0V41A2.53,2.53,0,0,0,35.69,38.42Z"/></g></g></svg>