<svg xmlns="http://www.w3.org/2000/svg" viewBox="0 0 55.6 65.48"><defs><style>.cls-1{fill:#454545;}</style></defs><title>비번</title><g id="레이어_2" data-name="레이어 2"><g id="icons"><path class="cls-1" d="M43,23.51V15.17a15.17,15.17,0,0,0-30.34,0v8.34H0v30a12,12,0,0,0,12,12H43.58a12,12,0,0,0,12-12V23.51ZM17.56,15.17a10.24,10.24,0,0,1,20.48,0v8.34H17.56ZM50.67,53.46a7.1,7.1,0,0,1-7.09,7.09H12a7.1,7.1,0,0,1-7.09-7.09v-25H50.67Z"/><path class="cls-1" d="M25.34,48.5v7.41h4.93V48.5a7.4,7.4,0,1,0-4.93,0Zm2.46-9.43a2.47,2.47,0,1,1-2.46,2.46A2.47,2.47,0,0,1,27.8,39.07Z"/></g></g></svg>