<svg id="레이어_1" data-name="레이어 1" xmlns="http://www.w3.org/2000/svg" viewBox="0 0 20 21.43"><defs><style>.cls-1{fill:#4b505e;}</style></defs><title>수정</title><path class="cls-1" d="M448.69,621.87H429.92a.75.75,0,0,1,0-1.47h18.77a.75.75,0,0,1,0,1.47Z" transform="translate(-429.3 -600.43)"/><path class="cls-1" d="M430,618.52a.7.7,0,0,1-.51-.22.73.73,0,0,1-.21-.65l1.18-6.18a.81.81,0,0,1,.2-.39l10.44-10.43a.73.73,0,0,1,.52-.22h0a.7.7,0,0,1,.51.22l5,5a.73.73,0,0,1,0,1l-10.44,10.44a.74.74,0,0,1-.38.2l-6.18,1.17Zm1.86-6.56-.93,4.9,4.9-.93.1-.1-4-4Z" transform="translate(-429.3 -600.43)"/><path class="cls-1" d="M436.31,616.91a.73.73,0,0,1-.52-.21L431.12,612a.73.73,0,0,1,0-1,.72.72,0,0,1,1,0l4.68,4.67a.73.73,0,0,1-.52,1.25Z" transform="translate(-429.3 -600.43)"/><path class="cls-1" d="M434.27,614.28a.73.73,0,0,1-.52-1.25l7.73-7.73a.73.73,0,0,1,1,0,.72.72,0,0,1,0,1l-7.73,7.74A.77.77,0,0,1,434.27,614.28Z" transform="translate(-429.3 -600.43)"/></svg>