<svg id="레이어_1" data-name="레이어 1" xmlns="http://www.w3.org/2000/svg" viewBox="0 0 23 25.6"><defs><style>.cls-1{fill:#4b505e;}</style></defs><title>대지 1</title><path class="cls-1" d="M23.1,14V10.3H19.45a6.45,6.45,0,0,0-1-2.19l2.67-2.46L18.46,3,15.89,5.46a9.48,9.48,0,0,0-2.27-1V1H9.77V4.51a11.84,11.84,0,0,0-2.37.85L4.84,2.9,2.07,5.46,4.64,7.92a8.82,8.82,0,0,0-1,2.19H0V13.8H3.65A8.91,8.91,0,0,0,4.54,16L2,18.45l2.67,2.66,2.57-2.47a9.48,9.48,0,0,0,2.27.95V23.1h3.85V19.59a11.84,11.84,0,0,0,2.37-.85l2.56,2.46L21,18.64l-2.57-2.46a8.82,8.82,0,0,0,1-2.19ZM11,15.7A3.7,3.7,0,0,1,7.27,12a3.63,3.63,0,0,1,3.78-3.6,3.69,3.69,0,0,1,3.68,3.7A3.75,3.75,0,0,1,11,15.7Z"/></svg>