<svg xmlns="http://www.w3.org/2000/svg" viewBox="0 0 252.7 76.7"><defs><style>.cls-1{fill:#005891;}.cls-2{fill:#00a0e2;}</style></defs><title>자산 1</title><g id="레이어_2" data-name="레이어 2"><g id="레이어_1-2" data-name="레이어 1"><path class="cls-1" d="M17.1,14V66.9a.47.47,0,0,1-.5.5H.5a.47.47,0,0,1-.5-.5v-53a.43.43,0,0,1,.4-.4H16.6a.47.47,0,0,1,.5.5"/><polygon class="cls-1" points="19.9 13.5 37.7 13.5 45.4 26 61.7 0 79.3 0 54.6 41 70.9 67.4 51.9 67.4 45.4 56.7 33.1 76.7 13.7 76.7 36.1 41 19.9 13.5"/><path class="cls-1" d="M98,12.1h-.2c-38.7-.2-38.2,57,0,56.8H98C136.1,69.1,136.7,11.9,98,12.1Zm-.1,42.3c-7,0-11.9-5.8-11.9-14.1,0-8.1,4.9-13.8,11.9-13.8S110,32.2,110,40.3C110,47.2,105.7,54.4,97.9,54.4Z"/><path class="cls-2" d="M165.9,16c.1,0,.1.1,0,0l.1,5.8a.1.1,0,0,1-.1.1H150.3a.1.1,0,0,0-.1.1V63.6a.1.1,0,0,1-.1.1h-6.3a.1.1,0,0,1-.1-.1V22a.1.1,0,0,0-.1-.1H128a.1.1,0,0,1-.1-.1V16.1a.1.1,0,0,1,.1-.1Z"/><path class="cls-2" d="M175.5,64.3c-3.9,0-6.7-.9-8.5-2.8s-2.7-4.8-2.7-8.8,1.1-6.9,3.3-8.6,5.9-2.5,11.1-2.5c1.7,0,3.4.1,5.1.2s4.6.7,4.6.7a.1.1,0,0,0,.1-.1V38.7s-.7-4.7-2.1-5.9-3.7-1.8-6.8-1.8a57.2,57.2,0,0,0-6.2.3c-1.8.2-5.2.9-5.2.9a.1.1,0,0,1-.1-.1V26.9a.1.1,0,0,1,.1-.1s4-.8,6.1-1,4.5-.3,7.2-.3c4.5,0,7.9,1.1,10,3.2s3.3,9.7,3.3,9.7V63.8a.1.1,0,0,1-.1.1h-5.5a.1.1,0,0,1-.1-.1l-.3-3.3a.1.1,0,0,0-.1-.1h-.1a28.9,28.9,0,0,1-5.8,2.9,31.25,31.25,0,0,1-7.3,1m3.9-17.6c-3.4,0-5.8.4-7.2,1.3s-2,2.3-2,4.4a6.21,6.21,0,0,0,1.7,4.8c1.1,1,2.9,1.5,5.5,1.5a22,22,0,0,0,6.1-.9,30.65,30.65,0,0,0,5-2.2l.1-.1V47.6a.1.1,0,0,0-.1-.1l-4.6-.6a33.89,33.89,0,0,0-4.5-.2"/><path class="cls-2" d="M210.6,13.2h0l.1,50.5a.1.1,0,0,1-.1.1h-6.1a.1.1,0,0,1-.1-.1V13.3a.1.1,0,0,1,.1-.1Z"/><path class="cls-2" d="M227.1,47.4c-.1,0-.1.1,0,0L227,63.6a.1.1,0,0,1-.1.1h-6.1a.1.1,0,0,1-.1-.1V13.2a.1.1,0,0,1,.1-.1h6.1a.1.1,0,0,1,.1.1V41.9a.1.1,0,0,0,.1.1h4.3a.1.1,0,0,0,.1-.1l13-15.8.1-.1H252s.1,0,0,.1L236.5,44.2v.1l16.2,19.2v.1H245a.1.1,0,0,1-.1-.1L231.6,47.4l-.1-.1h-4.4Z"/></g></g></svg>