<svg width="142" height="30" viewBox="0 0 142 30" fill="none" xmlns="http://www.w3.org/2000/svg">
<path d="M11.1563 3.14C11.1563 3.68 10.9163 3.98 10.4663 4.1C8.75633 4.52 7.22633 5.18 5.87633 6.05C4.01633 7.28 3.08633 8.63 3.08633 10.1C3.08633 10.88 3.38633 11.48 4.01633 11.93C4.25633 12.14 4.97633 12.5 6.17633 13.04C7.64633 13.7 8.63633 14.27 9.17633 14.75C10.0163 15.56 10.4663 16.64 10.4663 17.96C10.4663 19.64 9.62633 21.11 7.94633 22.31C6.41633 23.39 4.82633 23.93 3.14633 23.93C1.52633 23.93 0.716328 23.51 0.716328 22.67C0.716328 22.43 0.806328 22.22 0.986328 21.98C1.16633 21.77 1.37633 21.65 1.64633 21.65C1.82633 21.65 2.06633 21.71 2.42633 21.77C2.78633 21.89 3.05633 21.92 3.23633 21.92C4.37633 21.92 5.54633 21.56 6.71633 20.78C7.97633 19.94 8.63633 18.95 8.63633 17.78C8.63633 17.03 8.36633 16.43 7.82633 15.95C7.46633 15.71 6.68633 15.29 5.42633 14.69C3.92633 14.03 2.99633 13.49 2.57633 13.13C1.67633 12.38 1.25633 11.33 1.25633 9.98C1.25633 8.42 2.03633 6.92 3.62633 5.51C4.76633 4.49 6.20633 3.59 8.00633 2.87C8.36633 2.24 8.96633 1.91 9.74633 1.91C10.6763 1.91 11.1563 2.33 11.1563 3.14ZM22.997 16.37C22.997 17.54 22.847 18.5 22.547 19.25C22.457 19.49 22.337 19.85 22.157 20.33C21.857 21.14 21.317 21.86 20.477 22.52C19.637 23.18 18.857 23.54 18.077 23.54C16.817 23.54 15.797 23 15.017 21.86C14.267 20.87 13.907 19.7 13.907 18.35C13.907 17.12 14.207 15.89 14.807 14.69C15.437 13.4 16.247 12.5 17.267 11.96C17.807 11.69 18.197 11.42 18.437 11.12C18.557 11.09 18.707 11.06 18.857 11.06C18.917 11.06 19.157 11.12 19.517 11.24C20.537 11.63 21.377 12.29 22.037 13.25C22.667 14.21 22.997 15.26 22.997 16.37ZM21.257 16.82C21.257 15.41 20.837 14.45 20.057 13.91C19.577 13.91 19.157 13.79 18.857 13.61C17.807 13.67 16.997 14.21 16.397 15.23C15.887 16.13 15.647 17.18 15.647 18.35C15.647 19.28 15.857 20.03 16.307 20.63C16.757 21.29 17.327 21.59 18.047 21.59C18.827 21.59 19.547 21.02 20.267 19.88C20.927 18.83 21.257 17.81 21.257 16.82ZM36.3552 18.02C36.3552 22.46 35.2752 25.61 33.1152 27.53C31.3152 29.09 28.9752 29.9 26.1252 29.9C24.4752 29.9 23.6352 29.45 23.6352 28.55C23.6352 27.98 23.9352 27.68 24.4752 27.65C25.2552 27.74 25.7952 27.8 26.0952 27.8C30.8352 27.8 33.5952 25.61 34.3452 21.26C34.5252 20.18 34.6152 18.74 34.6152 16.91C34.0752 18.05 33.4152 19.04 32.6052 19.88C31.6152 20.93 30.6552 21.44 29.6952 21.44C28.8552 21.44 28.1952 21.17 27.7452 20.57C27.2352 20.03 26.9952 19.28 26.9952 18.35C26.9952 17.69 27.0552 16.7 27.2352 15.32C27.3552 13.94 27.4452 12.95 27.4452 12.29C27.4452 12.05 27.3852 11.75 27.2952 11.39C27.1752 11.03 27.1452 10.79 27.1452 10.7C27.1452 10.19 27.4452 9.92 28.1052 9.92C28.4952 9.92 28.7952 10.19 29.0052 10.73C29.1852 11.27 29.3052 11.84 29.3052 12.5C29.3052 13.16 29.2152 14.21 29.0352 15.59C28.8552 17 28.7652 17.99 28.7652 18.56C28.7652 18.8 28.8552 19.04 29.0652 19.22C29.2452 19.4 29.4852 19.49 29.7252 19.49C30.4452 19.49 31.2252 19.01 32.0652 17.99C32.8752 17 33.5952 15.71 34.2252 14.12C34.5252 13.31 34.8852 12.89 35.3652 12.89C36.0252 12.89 36.3552 13.76 36.3552 15.5V18.02ZM48.5145 16.37C48.5145 17.54 48.3645 18.5 48.0645 19.25C47.9745 19.49 47.8545 19.85 47.6745 20.33C47.3745 21.14 46.8345 21.86 45.9945 22.52C45.1545 23.18 44.3745 23.54 43.5945 23.54C42.3345 23.54 41.3145 23 40.5345 21.86C39.7845 20.87 39.4245 19.7 39.4245 18.35C39.4245 17.12 39.7245 15.89 40.3245 14.69C40.9545 13.4 41.7645 12.5 42.7845 11.96C43.3245 11.69 43.7145 11.42 43.9545 11.12C44.0745 11.09 44.2245 11.06 44.3745 11.06C44.4345 11.06 44.6745 11.12 45.0345 11.24C46.0545 11.63 46.8945 12.29 47.5545 13.25C48.1845 14.21 48.5145 15.26 48.5145 16.37ZM46.7745 16.82C46.7745 15.41 46.3545 14.45 45.5745 13.91C45.0945 13.91 44.6745 13.79 44.3745 13.61C43.3245 13.67 42.5145 14.21 41.9145 15.23C41.4045 16.13 41.1645 17.18 41.1645 18.35C41.1645 19.28 41.3745 20.03 41.8245 20.63C42.2745 21.29 42.8445 21.59 43.5645 21.59C44.3445 21.59 45.0645 21.02 45.7845 19.88C46.4445 18.83 46.7745 17.81 46.7745 16.82ZM63.6127 12.65C63.6127 12.98 63.5227 13.31 63.4027 13.64C63.0727 14.57 62.7127 16.55 62.3227 19.55C62.2327 20.21 62.2027 20.66 62.2027 20.9C62.2027 21.08 62.2327 21.38 62.2927 21.8C62.3527 22.28 62.4127 22.55 62.4127 22.61C62.4127 23.39 62.0227 23.81 61.3027 23.81C61.0627 23.81 60.8227 23.72 60.6127 23.57C60.3727 23.39 60.2527 23.21 60.2527 22.97C60.2527 22.76 60.3127 22.55 60.4627 22.34C60.5227 20.63 60.7027 19.01 61.0027 17.48C57.7027 21.38 55.3027 23.33 53.8027 23.33C53.1427 23.33 52.6027 23.15 52.2127 22.79C51.7927 22.43 51.5827 21.95 51.5827 21.35C51.5827 20.78 51.7627 19.52 52.1827 17.6C52.5727 15.56 52.7827 14.12 52.7827 13.28C52.7827 13.22 52.7827 13.13 52.7827 12.95C52.7527 12.83 52.7527 12.71 52.7527 12.65C52.7527 12.41 52.8427 12.2 53.0227 11.96C53.2027 11.75 53.4127 11.63 53.6527 11.63C54.1327 11.63 54.4027 12.17 54.4027 13.25C54.4027 13.91 54.1027 15.86 53.5327 19.1C53.3827 19.94 53.3227 20.45 53.3227 20.63C53.3227 21.05 53.4727 21.26 53.7727 21.26C54.9427 21.26 56.4427 20.21 58.2427 18.05C59.5627 16.49 60.8527 14.6 62.1727 12.35C62.3827 11.99 62.5927 11.81 62.8327 11.81C63.3427 11.81 63.6127 12.11 63.6127 12.65ZM76.7047 14.15C76.7047 15.5 76.5847 17.18 76.4047 19.16C76.2847 20.21 76.1647 21.56 75.9847 23.18C75.9247 23.48 75.8047 23.66 75.5647 23.66C75.2347 23.66 74.9347 23.51 74.6947 23.24C74.4547 22.94 74.3347 22.64 74.3347 22.31C74.3647 21.89 74.4247 21.23 74.5447 20.39L75.0547 15.32C72.2047 17.36 70.2247 19.46 69.1447 21.62C68.9647 22.04 68.8147 22.43 68.6347 22.82C68.4247 23.24 68.2747 23.48 68.1547 23.48C67.5547 23.48 67.1647 23.12 66.9247 22.4C66.5647 21.32 66.3847 19.94 66.3847 18.2C66.3847 16.37 66.6847 13.91 67.3447 10.82C67.4047 10.52 67.5247 10.34 67.7647 10.34C68.0947 10.34 68.3947 10.52 68.6947 10.82C68.9347 11.15 69.0547 11.51 69.0547 11.87C68.9947 12.17 68.9047 12.5 68.8147 12.92C68.3347 14.99 68.1247 17.24 68.1247 19.67C70.4947 16.58 72.8947 14.3 75.3547 12.83C75.7147 12.86 76.0147 13.01 76.2847 13.25C76.5547 13.55 76.7047 13.85 76.7047 14.15ZM89.5156 13.73C89.5156 14.15 89.2756 14.75 88.8556 15.53C88.7056 15.77 88.5856 16.82 88.4956 18.62C88.3456 21.47 87.7456 23.72 86.6656 25.46C85.5856 27.2 83.9656 28.49 81.8656 29.39C81.0256 29.72 80.2156 29.9 79.4056 29.9C78.7456 29.9 78.4156 29.57 78.4156 28.91C78.4156 28.61 78.5656 28.31 78.8656 28.04C79.1656 27.74 79.4656 27.62 79.7656 27.62C79.8256 27.62 80.0656 27.68 80.4556 27.8C84.2956 26.84 86.3356 24.08 86.6356 19.52C85.4656 20.69 84.2356 21.26 82.9156 21.26C81.9856 21.26 81.2656 20.93 80.7256 20.21C80.1856 19.55 79.9456 18.68 79.9456 17.6C79.9456 15.74 80.5456 14.03 81.8056 12.41C83.1256 10.67 84.7456 9.77 86.6656 9.77C88.3156 9.77 89.1856 10.88 89.2456 13.1C89.4256 13.25 89.5156 13.46 89.5156 13.73ZM87.4156 13.85C87.3556 13.25 87.2056 12.77 86.9656 12.41C86.6956 12.08 86.3956 11.9 86.0356 11.9C84.9256 11.9 83.9356 12.53 83.0656 13.73C82.1656 14.99 81.7456 16.25 81.7456 17.57C81.7456 18.11 81.8656 18.56 82.1056 18.92C82.3456 19.31 82.7056 19.49 83.1256 19.49C85.2256 19.49 86.5456 17.87 87.0556 14.63C87.0856 14.27 87.2056 14.03 87.4156 13.85ZM113.749 20.42C113.749 20.93 113.569 21.35 113.239 21.68C112.099 22.88 110.299 23.48 107.779 23.48C104.299 23.48 102.559 21.32 102.559 17C102.559 15.2 102.859 12.77 103.519 9.65C104.119 6.77 104.809 4.34 105.529 2.36C105.919 1.28 106.369 0.709999 106.879 0.709999C107.449 0.709999 107.749 1.01 107.749 1.58C107.749 1.76 107.539 2.48 107.149 3.74C105.349 9.5 104.449 13.91 104.449 16.91C104.449 18.59 104.689 19.76 105.199 20.45C105.679 21.11 106.549 21.44 107.839 21.44C109.129 21.44 110.479 21.08 111.919 20.3C112.039 19.82 112.369 19.55 112.849 19.55C113.449 19.55 113.749 19.85 113.749 20.42ZM127.552 22.73C127.552 23.51 126.622 23.93 124.822 23.93C122.482 23.93 120.802 22.82 119.782 20.6C119.542 20.66 119.242 20.69 118.942 20.69C117.892 20.69 117.052 20.51 116.452 20.12C115.702 19.7 115.342 19.25 115.342 18.77C115.342 18.11 115.642 17.78 116.242 17.78C116.332 17.78 116.632 17.96 117.142 18.32C117.652 18.65 118.162 18.8 118.672 18.8C118.852 18.8 119.062 18.8 119.242 18.77C119.152 18.29 119.122 17.84 119.122 17.39C119.122 15.95 119.482 14.54 120.202 13.19C121.012 11.66 122.032 10.88 123.262 10.88C124.012 10.88 124.762 11.3 125.542 12.08C126.082 12.68 126.382 13.37 126.382 14.15C126.382 15.35 125.872 16.49 124.882 17.63C123.982 18.68 122.872 19.49 121.552 20.06C122.152 21.32 123.082 21.95 124.402 21.95C124.672 21.95 125.092 21.92 125.662 21.8C126.202 21.74 126.532 21.71 126.682 21.71C126.922 21.71 127.102 21.83 127.282 22.04C127.462 22.28 127.552 22.49 127.552 22.73ZM124.612 14.3C124.612 13.94 124.432 13.61 124.132 13.31C123.802 13.04 123.472 12.89 123.142 12.89C122.542 12.89 122.032 13.37 121.612 14.27C121.192 15.17 120.982 16.13 120.982 17.09C120.982 17.45 121.012 17.87 121.072 18.29C122.032 17.87 122.872 17.3 123.562 16.55C124.252 15.86 124.612 15.11 124.612 14.3ZM141.145 22.73C141.145 23.51 140.215 23.93 138.415 23.93C136.075 23.93 134.395 22.82 133.375 20.6C133.135 20.66 132.835 20.69 132.535 20.69C131.485 20.69 130.645 20.51 130.045 20.12C129.295 19.7 128.935 19.25 128.935 18.77C128.935 18.11 129.235 17.78 129.835 17.78C129.925 17.78 130.225 17.96 130.735 18.32C131.245 18.65 131.755 18.8 132.265 18.8C132.445 18.8 132.655 18.8 132.835 18.77C132.745 18.29 132.715 17.84 132.715 17.39C132.715 15.95 133.075 14.54 133.795 13.19C134.605 11.66 135.625 10.88 136.855 10.88C137.605 10.88 138.355 11.3 139.135 12.08C139.675 12.68 139.975 13.37 139.975 14.15C139.975 15.35 139.465 16.49 138.475 17.63C137.575 18.68 136.465 19.49 135.145 20.06C135.745 21.32 136.675 21.95 137.995 21.95C138.265 21.95 138.685 21.92 139.255 21.8C139.795 21.74 140.125 21.71 140.275 21.71C140.515 21.71 140.695 21.83 140.875 22.04C141.055 22.28 141.145 22.49 141.145 22.73ZM138.205 14.3C138.205 13.94 138.025 13.61 137.725 13.31C137.395 13.04 137.065 12.89 136.735 12.89C136.135 12.89 135.625 13.37 135.205 14.27C134.785 15.17 134.575 16.13 134.575 17.09C134.575 17.45 134.605 17.87 134.665 18.29C135.625 17.87 136.465 17.3 137.155 16.55C137.845 15.86 138.205 15.11 138.205 14.3Z" fill="#000C76"/>
</svg>
