<svg id="레이어_1" data-name="레이어 1" xmlns="http://www.w3.org/2000/svg" viewBox="0 0 33.25 28.03"><defs><style>.cls-1{fill:#c155f5;}.cls-2{fill:#fff;}.cls-3{fill:none;stroke:#fff;stroke-width:0.7px;}</style></defs><title>대지 1</title><path class="cls-1" d="M30,13.4a19.48,19.48,0,0,1-.2,2.5,16.82,16.82,0,0,1-.7,2.4,12,12,0,0,1-1.2,2.2,15.58,15.58,0,0,1-1.6,2,15.58,15.58,0,0,1-2,1.6,12,12,0,0,1-2.2,1.2,10.88,10.88,0,0,1-2.4.7,10.55,10.55,0,0,1-2.5.2,19.48,19.48,0,0,1-2.5-.2,16.82,16.82,0,0,1-2.4-.7,9.41,9.41,0,0,1-2.2-1.2,15.58,15.58,0,0,1-2-1.6,15.58,15.58,0,0,1-1.6-2,12,12,0,0,1-1.2-2.2,10.88,10.88,0,0,1-.7-2.4,10.55,10.55,0,0,1-.2-2.5,19.48,19.48,0,0,1,.2-2.5,16.82,16.82,0,0,1,.7-2.4A9.41,9.41,0,0,1,6.5,6.3a15.58,15.58,0,0,1,1.6-2,15.58,15.58,0,0,1,2-1.6,12,12,0,0,1,2.2-1.2A10.88,10.88,0,0,1,14.7.8,21.05,21.05,0,0,1,17.2.6a19.48,19.48,0,0,1,2.5.2,9.51,9.51,0,0,1,2.4.7,9.41,9.41,0,0,1,2.2,1.2,15.58,15.58,0,0,1,2,1.6,15.58,15.58,0,0,1,1.6,2,12,12,0,0,1,1.2,2.2,9.51,9.51,0,0,1,.7,2.4A19.48,19.48,0,0,1,30,13.4Z"/><path class="cls-2" d="M17.3,19.7A.68.68,0,0,0,18,19V10.3l2.7,2.2a.6.6,0,0,0,.9,0,.63.63,0,0,0-.1-.9L17.7,8.2a.75.75,0,0,0-.9,0l-.3.3-3.3,3.2a.64.64,0,0,0,.9.9l2.5-2.2v8.7A.67.67,0,0,0,17.3,19.7Z"/><path class="cls-3" d="M17.3,19.7A.68.68,0,0,0,18,19V10.3l2.7,2.2a.6.6,0,0,0,.9,0,.63.63,0,0,0-.1-.9L17.7,8.2a.75.75,0,0,0-.9,0l-.3.3-3.3,3.2a.64.64,0,0,0,.9.9l2.5-2.2v8.7A.67.67,0,0,0,17.3,19.7Z"/></svg>