<svg id="레이어_1" data-name="레이어 1" xmlns="http://www.w3.org/2000/svg" viewBox="0 0 19.01 17.99"><defs><style>.cls-1{fill:#a099cc;}.cls-2{fill:#d4d0ee;}.cls-3,.cls-6{fill:none;}.cls-3{stroke:#000;stroke-miterlimit:10;opacity:0;}.cls-4{fill:#9562e1;}.cls-5{fill:#fff;}.cls-6{stroke:#fff;stroke-linecap:round;stroke-linejoin:round;stroke-width:0.7px;}</style></defs><title>대지 1</title><path class="cls-1" d="M0,11.11a2,2,0,0,1,.15-.76A1.92,1.92,0,0,1,.59,9.7a1.85,1.85,0,0,1,.64-.43A1.87,1.87,0,0,1,2,9.11H17a2,2,0,0,1,1.41.59,1.92,1.92,0,0,1,.44.65,2,2,0,0,1,.15.76,2,2,0,0,1-.59,1.42,1.85,1.85,0,0,1-.64.43,2,2,0,0,1-.77.15H2A2,2,0,0,1,1.23,13a1.85,1.85,0,0,1-.64-.43A2,2,0,0,1,0,11.11Z"/><rect class="cls-1" x="8.86" y="0.75" width="0.94" height="4.76"/><path class="cls-2" d="M10.75,1.52A1.42,1.42,0,1,1,9.33.1,1.42,1.42,0,0,1,10.75,1.52Z"/><path class="cls-2" d="M8.07,17.72A6.07,6.07,0,0,1,2,11.65v-.47A6.07,6.07,0,0,1,8.07,5.11H11A6.07,6.07,0,0,1,17,11.18v.47A6.07,6.07,0,0,1,11,17.72Z"/><path class="cls-3" d="M8.07,17.72A6.07,6.07,0,0,1,2,11.65v-.47A6.07,6.07,0,0,1,8.07,5.11H11A6.07,6.07,0,0,1,17,11.18v.47A6.07,6.07,0,0,1,11,17.72Z"/><path class="cls-4" d="M15.76,12.87A4.15,4.15,0,0,1,11.53,17h-4a4.15,4.15,0,0,1-4.23-4.08A4.15,4.15,0,0,1,7.48,8.8h4A4.15,4.15,0,0,1,15.76,12.87Z"/><path class="cls-5" d="M13.4,12.81a.75.75,0,1,1-.75-.75A.75.75,0,0,1,13.4,12.81Z"/><path class="cls-5" d="M7.4,12.81a.75.75,0,1,1-.75-.75A.75.75,0,0,1,7.4,12.81Z"/><path class="cls-6" d="M8.15,14.36a2.37,2.37,0,0,0,2.94,0"/></svg>